# xmcd
# 
# Track frame offsets:
#     150
#     11992
#     24095
#     37692
#     51055
#     64707
#     78192
#     89782
#     103380
#     117227
#     128487
#     140897
#     154630
#     166687
# 
# Disc length: 2423
# 
# Revision: 1
# Processed by: cddbd v1.5.2PL0 Copyright (c) Steve Scherf et al.
# Submitted via: fre:ac v1.0.31
# 
DISCID=ac09750e
DTITLE=Roots of Rhythm - After Hours
DYEAR=1999
DGENRE=R&B
TTITLE0=Wilson Pickett - In The Midnight Hour
TTITLE1=Al Hibbler - After the Lights Go Down Low
TTITLE2=John Lee Hooker - One Bourbon, One Scotch, One Beer
TTITLE3=Amos Milburn - Bad,Bad Whiskey
TTITLE4=Joe Liggins and His Honeydrippers - Pink Champagne
TTITLE5=Jimmy Forrest - Night Train
TTITLE6=Joe Turner - Wine-O-Baby Boogie
TTITLE7=B.B. King - Three O'clock Blues
TTITLE8=Chuck Berry - Wee Wee Hours
TTITLE9=Pee Wee Crayton - Blues After Hours
TTITLE10=Clarence "gatemouth" Brown - Midnite Hour
TTITLE11=Charlie Parker Allstars - Parker's Mood
TTITLE12=Billie Holiday - What Is This Going To Get Us
TTITLE13=Louis Jordan - Early In The Morning
EXTD=
EXTT0=
EXTT1=
EXTT2=
EXTT3=
EXTT4=
EXTT5=
EXTT6=
EXTT7=
EXTT8=
EXTT9=
EXTT10=
EXTT11=
EXTT12=
EXTT13=
PLAYORDER=
